<?xml version="1.0" encoding="utf-8"?><!-- Uploaded to: SVG Repo, www.svgrepo.com, Generator: SVG Repo Mixer Tools -->
<svg version="1.1" id="Uploaded to svgrepo.com" xmlns="http://www.w3.org/2000/svg" xmlns:xlink="http://www.w3.org/1999/xlink" 
	 width="800px" height="800px" viewBox="0 0 32 32" xml:space="preserve">
<style type="text/css">
	.blueprint_een{fill:#111918;}
	.st0{fill:#0B1719;}
</style>
<path class="blueprint_een" d="M16,0C9.373,0,4,5.373,4,12c0,6.805,8.683,16.505,11.277,19.25
	c0.198,0.209,0.46,0.314,0.723,0.314s0.525-0.105,0.723-0.314C19.317,28.505,28,18.805,28,12C28,5.373,22.627,0,16,0z M16,29.092
	C11.036,23.682,6,16.581,6,12C6,6.486,10.486,2,16,2c5.514,0,10,4.486,10,10C26,16.581,20.964,23.682,16,29.092z M16,6
	c-3.314,0-6,2.686-6,6s2.686,6,6,6s6-2.686,6-6S19.314,6,16,6z M16,17c-2.757,0-5-2.243-5-5s2.243-5,5-5s5,2.243,5,5
	S18.757,17,16,17z M16,8c-2.209,0-4,1.791-4,4c0,2.209,1.791,4,4,4c2.209,0,4-1.791,4-4C20,9.791,18.209,8,16,8z M16,15
	c-1.654,0-3-1.346-3-3c0-1.654,1.346-3,3-3c1.654,0,3,1.346,3,3C19,13.654,17.654,15,16,15z"/>
</svg>